<svg width="555.0764705882355px" height="408.17500000000007px" viewBox="-38.03823529411761 78.82 555.0764705882355 408.17500000000007" fill="none" xmlns="http://www.w3.org/2000/svg"><g id="Blob/Solid"><path id="Shape" fill-rule="evenodd" clip-rule="evenodd" d="M336.49 79C392.683 79 454.114 98.5034 490.643 143.289C507.521 163.983 515.973 188.275 516 212.42C516.013 239.682 505.284 266.757 483.784 288.321C463.901 308.254 438.511 321.75 412.578 332.83L409.717 334.046C406.796 335.299 403.822 336.703 401.98 339.247C400.593 341.147 399.989 343.487 399.465 345.774L399.368 346.202C393.904 370.213 383.869 390.72 370.474 408.016H370.462C346.604 438.837 312.004 459.45 273.453 471.516C243.929 480.761 212.076 485 180.92 485C128.516 485 80.4138 472.72 42.7331 452.228L42.7197 452.213C36.156 448.669 29.9004 444.843 24.0065 440.803C-14.3708 414.504 -38 378.587 -38 338.992C-38 263.507 47.8902 201.398 158.053 193.774C170.336 128.909 245.537 79 336.49 79ZM94.5007 82C113.554 82 129 92.5213 129 105.5C129 118.48 113.554 129 94.5007 129C75.446 129 60 118.48 60 105.5C60 92.5213 75.446 82 94.5007 82Z" fill="#CDEEEC"/></g></svg>